<svg width="20" height="16" viewBox="0 0 20 16" fill="none" xmlns="http://www.w3.org/2000/svg">
<g clip-path="url(#clip0_3_1002)">
<path d="M19.1875 1.79998L17.3892 3.59508V3.89355C17.3892 4.2208 17.3359 4.53526 17.2581 4.838C17.2155 7.30679 16.4298 10.5804 13.1903 13.1632C6.82649 18.249 0 13.7634 0 13.7634C5.39702 13.7634 5.39702 11.9683 5.39702 11.9683C4.19673 11.9683 1.7983 9.57731 1.7983 9.57731C2.39844 10.1743 3.59872 9.57731 3.59872 9.57731C0.596944 7.78115 0.596944 5.98499 0.596944 5.98499C1.19709 6.583 2.39737 5.98499 2.39737 5.98499C-0.600142 3.59508 1.19815 0.602893 1.19815 0.602893C1.7983 3.59508 9.59375 4.7911 9.59375 4.7911L9.69289 4.74206C9.62874 4.36306 9.59558 3.97946 9.59375 3.59508C9.59375 1.44714 11.3377 0.00488281 13.4909 0.00488281C14.6763 0.00488281 15.7231 0.544265 16.4384 1.37572L16.7891 1.20197L18.5874 0.00488281L17.3913 2.39799L19.1875 1.79998Z" fill="#666666"/>
</g>
<defs>
<clipPath id="clip0_3_1002">
<rect width="19.1875" height="16" fill="white"/>
</clipPath>
</defs>
</svg>
